PathFileType	4	(X/Y/Z)	/Users/visionmauri/Downloads/Videos/OAW12-top_Sports2D/OAW12-top_Sports2D_m_person00.trc
DataRate	CameraRate	NumFrames	NumMarkers	Units	OrigDataRate	OrigDataStartFrame	OrigNumFrames
25.0	25.0	9	22	m	25.0	1512	1729
Frame#	Time	Hip			RHip			RKnee			RAnkle			RBigToe			RSmallToe			RHeel			LHip			LKnee			LAnkle			LBigToe			LSmallToe			LHeel			Neck			Head			Nose			RShoulder			RElbow			RWrist			LShoulder			LElbow			LWrist			
		X1	Y1	Z1	X2	Y2	Z2	X3	Y3	Z3	X4	Y4	Z4	X5	Y5	Z5	X6	Y6	Z6	X7	Y7	Z7	X8	Y8	Z8	X9	Y9	Z9	X10	Y10	Z10	X11	Y11	Z11	X12	Y12	Z12	X13	Y13	Z13	X14	Y14	Z14	X15	Y15	Z15	X16	Y16	Z16	X17	Y17	Z17	X18	Y18	Z18	X19	Y19	Z19	X20	Y20	Z20	X21	Y21	Z21	X22	Y22	Z22
1512	60.515	2.9745748377612395	0.3564047498754953	0.0301	2.962964139612417	0.3202116114034962	0.0301	3.1272485324344803	0.2602308954323969	0.129	3.2349368684380786	0.21422600402475256	0.023	3.2956031918696085	0.19352995239661436	0.2179	3.2776298345762847	0.17834933775142575	0.1804	3.2532817510721452	0.21128937174368106	-0.0119	2.9909754471547436	0.38918796810546313	0.0301	3.1467387841521277	0.31791388008034815	0.129	3.2713379876662363	0.2660697747653317	0.023	3.332331831352313	0.23584190583031067	0.2179	3.3328813068078516	0.26038296068773453	0.1804	3.2858664259128183	0.25248270271769907	-0.0119	2.7731499913964077	0.44153216443446835	0.0008	2.6738879193527167	0.4803312290350019	0.0655	2.751213210379535	0.446838567822093	0.1076	2.7732873701981746	0.3666579226362013	-0.01275	2.8704727925979836	0.2912250672956482	0.0702	2.9634634153383197	0.23784793993371375	0.1076	2.8241572315317898	0.4964067229183967	-0.01275	2.9439516641311223	0.47565170490985403	0.0702	3.0426776375855717	0.4442005738840398	0.1076
1513	60.555023148148145	2.9769385124225383	0.3576811771588942	0.0301	2.9653687686012744	0.3221575270812721	0.0301	3.1317722562205956	0.2587685626150591	0.129	3.2352585897280073	0.21442896139654938	0.023	3.295847784595396	0.19361615964055204	0.2179	3.278083799528125	0.1794055185731836	0.1804	3.25349920544275	0.21185121187549324	-0.0119	2.992838497213639	0.39036825898387845	0.0301	3.151098912333872	0.31636523576451137	0.129	3.2743347017358158	0.26520549657722153	0.023	3.3355884797336453	0.23329359966001828	0.2179	3.335717239200828	0.2575972112342653	0.1804	3.288424692898698	0.25176852539186434	-0.0119	2.7744827175333335	0.44455884234604914	0.0008	2.673133501113686	0.4837990280341661	0.0655	2.7512028816096437	0.45109938872369215	0.1076	2.77577652280241	0.3699826508473886	-0.01275	2.8703656030603324	0.2951641872874038	0.0702	2.962154093438914	0.24335955933392542	0.1076	2.8269563788723793	0.49852486309943056	-0.01275	2.9473784362383655	0.47719314729200524	0.0702	3.0447610436401353	0.4449347299003079	0.1076
1514	60.595046296296296	2.97959855368041	0.3594715085881459	0.0301	2.967626081611976	0.32370782987980873	0.0301	3.136738547253012	0.2576615919739444	0.129	3.234738223953132	0.21522279542019504	0.023	3.2964186729016856	0.19345014224413157	0.2179	3.278221988938178	0.18043673830502355	0.1804	3.251303737375641	0.21284946866500662	-0.0119	2.9953703596971994	0.3921316983016706	0.0301	3.1571654253740595	0.3149307254004353	0.129	3.2766795907247306	0.26279701184302046	0.023	3.3376358969269626	0.2296527623424695	0.2179	3.3383064340081336	0.2538446344165811	0.1804	3.290431970863078	0.2508420173249012	-0.0119	2.774187809207829	0.4487289343889921	0.0008	2.6761454446685518	0.48688680976754345	0.0655	2.7525742894588876	0.4547028353156127	0.1076	2.7768805919269033	0.3741157994122587	-0.01275	2.86948205671455	0.30015152122905253	0.0702	2.9580305826249447	0.25025954800982253	0.1076	2.829446997777178	0.5011028780022017	-0.01275	2.9504952912742684	0.47915305800875335	0.0702	3.0458405607987955	0.4457398467314587	0.1076
1515	60.63506944444445	2.9835025799877286	0.36180975144085226	0.0301	2.9705079232594573	0.3252578297017221	0.0301	3.139523573787864	0.25865636085729754	0.129	3.2328966956002523	0.2164333316736345	0.023	3.2974934221159082	0.1943540328741027	0.2179	3.278594747520244	0.18155637926873427	0.1804	3.2461368182075523	0.21332763892545004	-0.0119	2.9983800843064192	0.3951784379502873	0.0301	3.161283998649448	0.31486314275273897	0.129	3.2802028855760135	0.26078615100406044	0.023	3.3402987517704954	0.22733805688442701	0.2179	3.34162128846668	0.2514287846530875	0.1804	3.2939150148452776	0.24923518258582605	-0.0119	2.779248860793576	0.4512601157761768	0.0008	2.689427630324516	0.48684102125028716	0.0655	2.7625324265237463	0.45383689219684015	0.1076	2.7783767174413563	0.37795359526086897	-0.01275	2.8693793235094556	0.3044330909224247	0.0702	2.9547229075885695	0.25861453397409334	0.1076	2.832959569998785	0.5046964320040621	-0.01275	2.95421521307152	0.48323894826014974	0.0702	3.050926988345069	0.4472301314600889	0.1076
1516	60.67509259259259	2.987752534667082	0.3643178762917919	0.0301	2.9739865908191825	0.3267489141070337	0.0301	3.140156348994106	0.2608568242764812	0.129	3.2292042145224222	0.21782737061911697	0.023	3.2978665202990194	0.19653356299914446	0.2179	3.279203650049943	0.18306171360749626	0.1804	3.238864793320521	0.2134413748430509	-0.0119	3.0017454655244085	0.3984415038467396	0.0301	3.162019699714623	0.31579120192961274	0.129	3.283341165020713	0.2605842548672184	0.023	3.3424756870109653	0.22721448085960405	0.2179	3.343752539491966	0.25101281274719484	0.1804	3.2964952132959375	0.24810011485053787	-0.0119	2.786851750489142	0.4528739978291486	0.0008	2.705095465654175	0.4861212207582978	0.0655	2.775398377643128	0.45210912863477376	0.1076	2.7803867975644296	0.3813170337357465	-0.01275	2.871115957028605	0.307181613875187	0.0702	2.953160919197487	0.26632900981011937	0.1076	2.8365018806027122	0.5086517885331804	-0.01275	2.956971022204614	0.48790364858068475	0.0702	3.056260594931012	0.4511508099192091	0.1076
1517	60.71511574074074	2.9905118897810468	0.3667889203618714	0.0301	2.976492376796708	0.3282875366441725	0.0301	3.139977234788405	0.2621549280752208	0.129	3.224208013813525	0.21858947937258402	0.023	3.2969407391016863	0.1979867782435103	0.2179	3.279385050579045	0.18349204025466556	0.1804	3.2314417818338264	0.21373781429405636	-0.0119	3.00533995813671	0.40051712654986515	0.0301	3.160966358380122	0.3171431861862797	0.129	3.283628019174031	0.26104437403097275	0.023	3.342151241996397	0.22807337938198688	0.2179	3.3434195319206297	0.25163262943032544	0.1804	3.2964035586448572	0.2479323896740176	-0.0119	2.789166248615611	0.45626703029160476	0.0008	2.708247079666786	0.4897087935522101	0.0655	2.777914011594657	0.45547874256940546	0.1076	2.7816918161037245	0.3845348696422297	-0.01275	2.8734907622913206	0.3088243748707347	0.0702	2.952841768406513	0.2713191821011334	0.1076	2.838554695324437	0.5120481637042215	-0.01275	2.9584867628425506	0.4908108128906982	0.0702	3.057123224565527	0.4565698614136692	0.1076
1518	60.75513888888889	2.9914872757828506	0.36901126157030756	0.0301	2.9774842124620244	0.33011304317079543	0.0301	3.141129256315433	0.26173155798509073	0.129	3.2203249057070127	0.21805098736024714	0.023	3.296363906950393	0.1967200866198718	0.2179	3.2793286983663923	0.1808910230286685	0.1804	3.225600577063064	0.21374263985773925	-0.0119	3.007856431371069	0.40225517958926466	0.0301	3.1611602636574085	0.3186929028089411	0.129	3.2824417798130074	0.2605897476241987	0.023	3.3409603837687967	0.22865262529621258	0.2179	3.342810813029106	0.2519725697980504	0.1804	3.295528365184637	0.24776696220305838	-0.0119	2.7869349091361824	0.4611007642269823	0.0008	2.7021288755610215	0.49629528499219805	0.0655	2.7722861585542673	0.462458367182912	0.1076	2.782385781748425	0.3876093635779548	-0.01275	2.8749906884195395	0.31075603948178904	0.0702	2.954000261375088	0.27415839300124106	0.1076	2.8396766407476894	0.5153535218371446	-0.01275	2.9612205262298437	0.49308102434855855	0.0702	3.0580079082608305	0.46063197480277845	0.1076
1519	60.79516203703704	2.991638143267995	0.3706480537201545	0.0301	2.977878948695956	0.33238926105266764	0.0301	3.1431476127785882	0.2608970778143622	0.129	3.219611337107379	0.21703570766281727	0.023	3.2981469580580005	0.19253093802229143	0.2179	3.2802850566038044	0.17582394652569383	0.1804	3.2236740897843092	0.21348297929300625	-0.0119	3.008112018045524	0.4050116779043129	0.0301	3.1629704561843983	0.32062761021147346	0.129	3.2823848872825896	0.2599489945489541	0.023	3.3414286190709777	0.22913225345719732	0.2179	3.3436986495943275	0.2520212970714485	0.1804	3.2954186553607623	0.24741308041465096	-0.0119	2.7863137347527753	0.46526039167585137	0.0008	2.6999111511032616	0.5014223693184711	0.0655	2.7715717597735967	0.46798443817131785	0.1076	2.7831481393008795	0.3902783346514177	-0.01275	2.87575823640575	0.3133223755227696	0.0702	2.9569604559542415	0.275974581869129	0.1076	2.8409673125374666	0.5192285609282595	-0.01275	2.965443315397149	0.49629840292832944	0.0702	3.063714567351996	0.46285531797658674	0.1076
1520	60.83518518518518	2.9920302474579192	0.3720313162673918	0.0301	2.978717480305086	0.33492212867570276	0.0301	3.1441717419883335	0.26033479990960673	0.129	3.223819876508655	0.21589318522913656	0.023	3.3028741928009544	0.18671834931558495	0.2179	3.2834836831622076	0.17122123351190394	0.1804	3.2293145737424642	0.21265009408682503	-0.0119	3.0081483115436227	0.4080272734573124	0.0301	3.165209271061834	0.3222145783468163	0.129	3.2830721466312585	0.2601358756957926	0.023	3.3428189299539643	0.22944759081157523	0.2179	3.344577827585036	0.2523962104830685	0.1804	3.295167360378995	0.24776333292897074	-0.0119	2.788093800414676	0.46861920889638214	0.0008	2.701632222496413	0.505102090060253	0.0655	2.775551534280548	0.4717898242397048	0.1076	2.7840168198452337	0.39290472996491377	-0.01275	2.8771362257434996	0.3157735149331832	0.0702	2.9620455072588396	0.2762845363026573	0.1076	2.842522136901265	0.5231968060747465	-0.01275	2.96837179312754	0.4994403819337794	0.0702	3.070587624400228	0.4651548033618879	0.1076
